<?xml version="1.0" standalone="no"?>
<!DOCTYPE svg PUBLIC "-//W3C//DTD SVG 20010904//EN"
 "http://www.w3.org/TR/2001/REC-SVG-20010904/DTD/svg10.dtd">
<svg version="1.0" xmlns="http://www.w3.org/2000/svg"
 width="1200.000000pt" height="1200.000000pt" viewBox="0 0 1200.000000 1200.000000"
 preserveAspectRatio="xMidYMid meet">
<metadata>
Created by potrace 1.11, written by Peter Selinger 2001-2013
</metadata>
<g transform="translate(0.000000,1200.000000) scale(0.100000,-0.100000)"
fill="#000000" stroke="none">
<path d="M5536 11650 c-91 -109 -175 -215 -187 -234 -23 -39 -21 -8 -33 -500
-3 -104 -6 -189 -8 -190 -2 -1 -77 -19 -168 -39 -91 -20 -241 -54 -335 -76
-93 -21 -213 -49 -265 -61 -52 -12 -117 -28 -143 -35 l-49 -13 -163 246 c-89
136 -171 254 -181 263 -30 27 -66 41 -319 133 l-240 88 -320 -197 c-176 -108
-326 -202 -332 -208 -8 -8 -15 -54 -18 -117 -4 -58 -8 -123 -10 -145 -5 -39
-17 -246 -18 -295 -1 -62 6 -82 61 -162 31 -47 106 -157 165 -245 l109 -161
-107 -103 c-59 -57 -162 -158 -230 -224 -399 -389 -385 -376 -407 -369 -12 4
-50 24 -85 45 -35 22 -65 39 -67 39 -2 0 -43 23 -92 51 -248 143 -266 152
-324 152 -30 1 -84 -2 -120 -6 -36 -4 -94 -9 -130 -12 -159 -13 -305 -26 -306
-28 -6 -11 -193 -306 -241 -380 -139 -215 -160 -252 -152 -267 11 -18 129
-271 129 -275 0 -2 29 -63 64 -137 40 -85 74 -143 93 -159 16 -13 126 -94 245
-179 119 -85 214 -159 212 -165 -4 -10 -133 -645 -139 -680 -2 -11 -10 -52
-18 -90 -17 -78 -24 -111 -33 -167 -4 -20 -11 -39 -18 -41 -6 -2 -113 -5 -239
-6 -406 -4 -370 4 -525 -120 -53 -42 -153 -122 -223 -177 -113 -90 -125 -102
-123 -129 1 -17 5 -95 8 -175 4 -80 9 -167 11 -195 2 -27 7 -112 10 -188 4
-75 8 -145 10 -155 2 -9 4 -20 4 -23 1 -4 35 -31 77 -60 89 -63 141 -101 259
-188 100 -73 141 -87 245 -85 142 4 532 5 534 2 2 -3 120 -464 131 -509 13
-60 107 -425 111 -430 7 -11 -26 -32 -306 -199 -151 -90 -286 -172 -299 -184
-27 -24 -40 -52 -151 -311 l-82 -190 17 -30 c10 -16 89 -160 177 -320 88 -159
161 -291 162 -292 5 -6 544 -105 572 -105 34 0 77 18 199 84 44 24 125 68 180
97 55 30 132 71 170 92 l70 38 96 -92 c52 -51 133 -128 180 -172 47 -44 163
-154 258 -245 95 -91 177 -166 182 -168 17 -7 9 -24 -46 -96 l-54 -73 -1411 0
c-775 0 -1413 -3 -1417 -6 -3 -4 -6 -441 -7 -972 l-1 -965 5843 0 c4666 0
5842 3 5843 13 5 69 1 1919 -4 1924 -4 3 -591 6 -1304 6 l-1297 0 -63 78 c-35
43 -63 83 -63 88 0 6 55 67 123 137 137 142 145 151 381 397 93 98 174 177
180 177 14 0 99 -43 523 -266 107 -56 144 -60 269 -34 55 11 111 22 125 25
215 40 306 60 315 69 18 18 333 643 327 649 -3 3 -52 108 -109 234 -61 134
-115 239 -132 255 -26 26 -514 308 -533 308 -15 0 -12 17 46 309 30 152 56
287 59 301 2 14 14 75 26 135 12 61 24 119 26 130 2 11 6 31 9 45 3 14 8 41
11 60 3 19 9 39 14 44 5 4 89 10 187 12 323 7 438 12 458 20 18 7 241 164 413
291 71 54 72 55 73 101 0 26 2 78 4 117 3 60 10 225 20 497 l3 76 -110 87
c-60 48 -114 92 -121 99 -7 6 -41 33 -77 61 -36 27 -71 56 -79 63 -33 32 -70
38 -261 46 -379 17 -459 21 -464 27 -1 2 -8 31 -15 64 -7 33 -14 67 -16 75 -2
8 -13 58 -24 110 -11 52 -28 127 -36 165 -9 39 -18 81 -21 95 -2 14 -9 45 -14
70 -6 25 -12 54 -15 65 -2 11 -20 92 -39 180 -19 88 -34 160 -33 161 18 14
292 211 413 297 119 85 142 110 176 197 15 36 57 137 95 226 59 135 68 163 58
180 -7 10 -56 100 -110 199 -54 99 -107 196 -118 215 -11 19 -46 83 -79 143
-38 68 -66 107 -76 108 -9 0 -24 2 -32 3 -8 2 -49 6 -90 10 -41 4 -97 9 -125
12 -187 18 -226 21 -275 19 -57 -2 -55 -1 -345 -157 -49 -27 -117 -62 -150
-79 -33 -16 -83 -43 -112 -59 l-52 -29 -346 346 c-190 190 -344 351 -342 358
3 6 22 38 43 71 21 32 45 72 54 87 8 15 56 93 105 173 143 231 135 211 130
317 -3 51 -7 112 -9 137 -3 25 -8 86 -11 135 -11 160 -14 188 -23 197 -5 5
-114 83 -243 173 -129 90 -262 184 -297 209 -53 37 -67 43 -90 36 -147 -45
-516 -180 -539 -198 -17 -13 -66 -75 -109 -139 -44 -64 -90 -133 -104 -152
-14 -20 -58 -84 -99 -143 -40 -60 -76 -106 -80 -104 -4 3 -18 7 -32 10 -13 2
-130 29 -259 60 -129 31 -325 77 -435 103 -110 25 -203 50 -206 55 -4 6 -7 42
-8 82 -1 40 -3 83 -6 97 -2 13 -6 92 -10 174 -8 200 -10 215 -26 251 -21 47
-332 472 -349 478 -8 3 -127 8 -265 11 -137 3 -307 8 -376 10 l-127 4 -166
-199z"/>
</g>
</svg>
